<svg width="99" height="113" viewBox="0 0 99 113" fill="none" xmlns="http://www.w3.org/2000/svg">
<path d="M87.8928 49.4733C87.8928 70.9196 70.5251 88.2871 49.0787 88.2871C27.6323 88.2871 10.2646 70.9196 10.2646 49.4733C10.2646 28.0271 27.6323 10.6596 49.0787 10.6596C70.5251 10.6596 87.8928 28.0271 87.8928 49.4733Z" fill="white"/>
<path d="M48.5524 0.00225887C21.8431 0.265403 0.133511 22.1063 0.00193763 48.6839C-0.129635 63.5515 6.44902 76.9719 16.8433 85.9188C17.1064 86.0503 17.1064 86.445 17.1064 86.7082L8.94891 112.628C8.81733 112.891 9.21205 113.154 9.4752 112.891L32.3689 95.5235C32.5005 95.3919 32.7636 95.3919 33.0268 95.3919C38.6844 97.3655 44.8684 98.2865 51.3154 98.0234C76.8406 96.9708 97.366 76.0508 98.0239 50.3943C98.8133 22.5011 76.3143 -0.260885 48.5524 0.00225887ZM44.3421 21.8432C44.3421 20.9222 45.1315 20.1328 46.0525 20.1328H51.0523C51.9733 20.1328 52.7627 20.9222 52.7627 21.8432V52.7626C52.7627 53.6836 51.9733 54.4731 51.0523 54.4731H46.0525C45.1315 54.4731 44.3421 53.6836 44.3421 52.7626V21.8432ZM47.1051 77.1034C33.0268 76.314 21.8431 64.7357 21.5799 50.6575C21.4483 41.579 25.7903 33.5531 32.5005 28.5534C33.1584 28.0271 34.2109 28.1587 34.7372 28.6849L38.4213 32.2374C39.2107 33.0268 39.0791 34.3425 38.1581 35.0004C33.2899 38.2897 30.1322 43.8157 30.1322 50.1312C30.1322 60.5254 38.816 68.946 49.3418 68.4197C58.8151 68.025 66.4463 60.2622 66.8411 50.789C67.1042 44.2104 63.8149 38.2897 58.8151 35.0004C57.8941 34.3425 57.7625 33.0268 58.552 32.2374L62.236 28.6849C62.8939 28.0271 63.8149 28.0271 64.6043 28.5534C71.183 33.4215 75.5249 41.3159 75.5249 50.2627C75.5249 65.6567 62.6307 77.8929 47.1051 77.1034Z" fill="#0680C9"/>
</svg>
